<svg width="16" height="16" viewBox="0 0 16 16" fill="none" xmlns="http://www.w3.org/2000/svg">
<rect width="16" height="16" fill="#81B3D3"/>
<path d="M5.36155 9.87172C5.37284 9.8828 5.37855 9.89374 5.37855 9.90481C5.38999 9.90481 5.40127 9.91021 5.41256 9.92129C5.7189 10.251 6.06512 10.5589 6.45091 10.8448C6.8367 11.1196 7.27936 11.268 7.7786 11.29C7.79003 11.29 7.80132 11.2957 7.8126 11.3066H7.86376C7.87504 11.3066 7.88648 11.312 7.89776 11.3231H8.08494C8.14181 11.312 8.19282 11.3011 8.23826 11.29C8.42016 11.2569 8.59363 11.1897 8.74893 11.0922C8.91896 10.9932 9.04956 10.8722 9.14029 10.7293L9.17444 10.6633L9.20845 10.5974C9.23117 10.5204 9.24817 10.449 9.25961 10.383C9.27089 10.3171 9.27661 10.2566 9.27661 10.2016C9.27661 9.90481 9.14029 9.65743 8.8681 9.45946C8.6143 9.25459 8.3265 9.09287 8.01693 8.98116C7.9005 8.93954 7.781 8.9065 7.65943 8.88232C7.55271 8.85104 7.44486 8.82352 7.33608 8.79981H7.30208C7.29064 8.78888 7.27936 8.78334 7.26807 8.78334C6.71613 8.65304 6.18801 8.4417 5.70205 8.15664C5.21395 7.85983 4.87931 7.43649 4.6977 6.88676C4.66214 6.77173 4.62808 6.65627 4.59554 6.5404C4.57224 6.41488 4.55522 6.28834 4.54453 6.16122C4.53408 6.1235 4.52837 6.08468 4.52753 6.04562V5.64984C4.53882 5.56193 4.55582 5.47402 4.57854 5.38598C4.61378 5.16141 4.67075 4.94055 4.74871 4.72633C4.82816 4.50649 4.93032 4.30853 5.05506 4.13272C5.41827 3.5499 5.88351 3.1321 6.45091 2.87932C7.02974 2.62639 7.63114 2.5 8.25526 2.5C8.40287 2.5 8.55032 2.51093 8.69792 2.53295C8.85731 2.54398 9.01625 2.56046 9.17444 2.58237C9.58838 2.64983 9.99357 2.76043 10.383 2.91226C10.7915 3.0662 11.166 3.24755 11.5065 3.45645L10.5703 5.48496C10.2648 5.26563 9.9401 5.07252 9.59996 4.90782C9.25961 4.7428 8.89082 4.66044 8.4936 4.66044H8.35728C8.09637 4.69338 7.85247 4.80884 7.62542 5.00666C7.39852 5.19355 7.28507 5.39705 7.28507 5.61689V5.71587C7.29636 5.74882 7.31336 5.78177 7.33608 5.81485C7.3588 5.89183 7.39852 5.96326 7.45525 6.02929C7.51197 6.09519 7.57442 6.15568 7.64243 6.21064C7.76731 6.30963 7.94877 6.40307 8.18725 6.49098C8.42544 6.56795 8.6752 6.64492 8.93626 6.72189C9.15172 6.77685 9.36162 6.83181 9.56595 6.88676C9.77028 6.93079 9.94045 6.97481 10.0766 7.01884C10.712 7.23867 11.1887 7.60691 11.5065 8.12369C11.8241 8.6294 11.9887 9.16819 12 9.73979V9.8223C12 9.88834 11.9944 9.95438 11.983 10.0203V10.2016C11.915 10.7734 11.7221 11.3176 11.4043 11.8343C11.098 12.3511 10.6837 12.7469 10.1618 13.0218C9.96804 13.1101 9.76908 13.1871 9.56595 13.2526C9.36309 13.3073 9.15879 13.3568 8.95326 13.4012C8.7847 13.4339 8.61411 13.4559 8.44259 13.4671C8.27896 13.4886 8.11405 13.4996 7.94892 13.5H7.76159C7.08075 13.4781 6.41133 13.3351 5.75306 13.0711C5.09493 12.7963 4.51053 12.4335 4 11.9827L5.36155 9.87172Z" fill="white"/>
</svg>
