<svg width="16" height="16" fill="none" xmlns="http://www.w3.org/2000/svg"><path fill="#81B3D3" d="M0 0h16v16H0z"/><path d="M5.362 9.872c.01.01.017.022.017.033.011 0 .022.005.034.016.306.33.652.638 1.038.924.386.275.828.423 1.328.445.011 0 .022.006.034.017h.05c.012 0 .023.005.035.016h.187a3.39 3.39 0 0 0 .153-.033c.182-.033.356-.1.51-.198.171-.099.302-.22.392-.363l.034-.066.034-.066c.023-.077.04-.148.052-.214.01-.066.017-.126.017-.181 0-.297-.137-.545-.409-.743a2.948 2.948 0 0 0-.851-.478 2.526 2.526 0 0 0-.358-.099 4.734 4.734 0 0 0-.323-.082h-.034c-.011-.011-.023-.017-.034-.017a5.67 5.67 0 0 1-1.566-.626 2.274 2.274 0 0 1-1.004-1.27c-.036-.115-.07-.23-.102-.347a3.841 3.841 0 0 1-.051-.379.47.47 0 0 1-.017-.115V5.65c.01-.088.028-.176.05-.264.036-.225.093-.445.17-.66.08-.22.182-.417.307-.593.363-.583.829-1 1.396-1.254A4.46 4.46 0 0 1 8.255 2.5c.148 0 .295.01.443.033.16.011.318.027.476.05.414.067.82.177 1.209.33.409.153.783.335 1.124.543l-.937 2.029a6.583 6.583 0 0 0-.97-.577 2.502 2.502 0 0 0-1.106-.248h-.137c-.26.033-.505.149-.732.347-.226.187-.34.39-.34.61v.099a.41.41 0 0 0 .051.099.579.579 0 0 0 .12.214c.056.066.118.127.186.182.125.099.307.192.545.28.238.077.488.154.75.23.215.056.425.11.629.166.204.044.374.088.51.132.636.22 1.113.588 1.43 1.105.318.505.483 1.044.494 1.616v.082c0 .066-.006.132-.017.198v.182a3.987 3.987 0 0 1-.579 1.632c-.306.517-.72.913-1.242 1.188a5.527 5.527 0 0 1-.596.23c-.203.055-.407.105-.613.15-.168.032-.339.054-.51.065a3.861 3.861 0 0 1-.494.033h-.187a5.867 5.867 0 0 1-2.009-.429A6.284 6.284 0 0 1 4 11.983l1.362-2.111Z" fill="#fff"/></svg>