<svg xmlns="http://www.w3.org/2000/svg" xmlns:xlink="http://www.w3.org/1999/xlink"><symbol id="icon-htmlacademy"><g fill="none"><path d="M18.15 2.25h-.1L4.5 3.59V27.22l13.55 7.654 13.45-7.654V3.589L18.15 2.25Zm11.443 11.577L18.05 7.32v-.096h-.1l-.1-.096v.096L6.406 13.827V5.216L17.95 4.068l11.643 1.148v8.61ZM17.95 8.756l11.543 6.41-4.517 2.488-7.127-4.019v1.34l5.922 3.348-.903.479-5.019-2.87v1.339l3.815 2.2-.803.479-3.012-1.722v1.34l1.907 1.051-1.806 1.053-11.443-6.41L17.95 8.756Zm-11.543 7.94 11.442 6.507v.957L9.92 19.663v1.34l8.03 4.592v1.052L9.92 22.15v1.34l8.03 4.592 8.13-4.688V18.42l3.413-1.913v9.567L17.95 32.675 6.407 26.169v-9.472Z" fill="#000"/></g></symbol><symbol id="icon-like"><g fill="none"><path d="m17.4 9.6-.6 2.9-.6 2.5h8.7v2.1L22 24h-9V14l4.4-4.4ZM7 16v8-8ZM18.2 6l-6.6 6.6c-.4.3-.6.8-.6 1.4v10c0 1.1.9 2 2 2h9c.8 0 1.5-.5 1.8-1.2l3-7.1c.1-.2.1-.5.1-.7v-2h.1c0-1.1-.9-2-2-2h-6.3l1-4.6v-.3c0-.4-.2-.8-.4-1.1l-1.1-1ZM9 14H5v12h4V14Z" fill="#81B3D2"/></g></symbol></svg>